<svg id="FAZ-Dachmarke_Logo" xmlns="http://www.w3.org/2000/svg" viewBox="0 0 850.3937 114.8032"><title>FAZ-Dachmarke-Logo-Master_rgb</title><path d="M256.9,5.2728a8.0947,8.0947,0,0,1-2.7182,2.7759A6.3467,6.3467,0,0,1,250.77,9.2053q-3.5846,0-6.8245-5.32a24.367,24.367,0,0,1-6.9981,9.3685,14.809,14.809,0,0,1-9.4272,3.5854,87.5751,87.5751,0,0,1,.694,13.1853v2.66h-3.3578l-2.5448,3.47h5.9026V112.49h1.8508v-8.4431q0-8.0987,3.0653-13.4745a18.6008,18.6008,0,0,1,7.2293-7.5757V36.1541h7.1786l2.5447-3.47h-9.7233V30.2554a42.3949,42.3949,0,0,0-.6939-7.9227,20.6182,20.6182,0,0,0-1.7351-5.61q3.9317,3.47,6.7089,3.47,4.05,0,7.5187-4.0481A22.8066,22.8066,0,0,0,256.9,5.2728ZM101.9038,30.14q-2.4291,3.7023-5.2052,3.7011A3.7278,3.7278,0,0,1,94.27,32.6843a11.9482,11.9482,0,0,1-2.0821-2.4289q-1.1554,2.082-3.2966,5.1469T84.9,40.7805A14.6034,14.6034,0,0,0,82.3554,34.94a19.5441,19.5441,0,0,0-5.3209-4.6843,40.53,40.53,0,0,1-4.2219,5.5517,55.5479,55.5479,0,0,1-5.3787,5.436,5.5075,5.5075,0,0,1,4.1642,1.5615,5.9971,5.9971,0,0,1,1.5036,4.3372v30.65a5.677,5.677,0,0,1-.694,3.1229A8.2358,8.2358,0,0,1,70.21,82.9966a41.254,41.254,0,0,1,4.9738,4.8,29.86,29.86,0,0,1,4.5112,6.1878,21.6745,21.6745,0,0,1,5.4365-6.3035,28.5592,28.5592,0,0,1,7.8656-4.6842,11.42,11.42,0,0,1-4.8582-1.388,5.5159,5.5159,0,0,1-2.2555-3.3541,27.5181,27.5181,0,0,1-.6362-6.824V44.25a10.3091,10.3091,0,0,0,6.1306,2.1975,7.3384,7.3384,0,0,0,5.0894-2.3132A16.9034,16.9034,0,0,0,100.4,38.0625,21.1449,21.1449,0,0,0,101.9038,30.14Zm81.4323,17.349a15.8173,15.8173,0,0,1,.347-3.7011,7.5841,7.5841,0,0,1,1.1567-2.5446,45.8634,45.8634,0,0,1-5.3787-4.742q-3.529-3.47-5.8414-6.2457l-12.1454,12.607a15.0162,15.0162,0,0,0-2.2556-7.1709,19.592,19.592,0,0,0-5.8414-5.4361,40.7129,40.7129,0,0,1-4.222,5.5517,55.5255,55.5255,0,0,1-5.3787,5.436,5.5145,5.5145,0,0,1,4.1642,1.5615,5.9971,5.9971,0,0,1,1.5037,4.3372v30.65a5.6779,5.6779,0,0,1-.694,3.1229,8.2348,8.2348,0,0,1-2.1978,2.0819,32.8918,32.8918,0,0,1,4.6847,4.6842,31.4423,31.4423,0,0,1,4.3377,6.3035,33.4752,33.4752,0,0,1,4.3376-6.3035,29.3144,29.3144,0,0,1,4.8-4.6842,6.05,6.05,0,0,1-2.3713-1.9084,5.8672,5.8672,0,0,1-.7518-3.2964V45.87l1.388-.8095a8.1695,8.1695,0,0,1,4.3955-1.388,3.5546,3.5546,0,0,1,2.7761,1.1566,4.8549,4.8549,0,0,1,1.041,3.3541v30.65a18.47,18.47,0,0,0,1.8508,8.8481,18.0517,18.0517,0,0,0,6.3619,6.3035,30.2553,30.2553,0,0,1,3.9906-5.4361,50.4539,50.4539,0,0,1,5.61-5.5516,5.5072,5.5072,0,0,1-4.1642-1.5615,5.9874,5.9874,0,0,1-1.5037-4.3373Zm625.5318,29.609V47.4888a15.8173,15.8173,0,0,1,.347-3.7011,7.5841,7.5841,0,0,1,1.1567-2.5446,45.8634,45.8634,0,0,1-5.3787-4.742q-3.529-3.47-5.8414-6.2457l-12.1454,12.607a15.0162,15.0162,0,0,0-2.2556-7.1709,19.592,19.592,0,0,0-5.8414-5.4361,40.7129,40.7129,0,0,1-4.222,5.5517,55.5255,55.5255,0,0,1-5.3787,5.436,5.5145,5.5145,0,0,1,4.1642,1.5615,5.9971,5.9971,0,0,1,1.5037,4.3372v30.65a5.6779,5.6779,0,0,1-.694,3.1229,8.2348,8.2348,0,0,1-2.1978,2.0819,32.8918,32.8918,0,0,1,4.6847,4.6842,31.4423,31.4423,0,0,1,4.3377,6.3035,33.4752,33.4752,0,0,1,4.3376-6.3035,29.3144,29.3144,0,0,1,4.8-4.6842,6.05,6.05,0,0,1-2.3713-1.9084,5.8672,5.8672,0,0,1-.7518-3.2964V45.87l1.388-.8095a8.1695,8.1695,0,0,1,4.3955-1.388,3.5546,3.5546,0,0,1,2.7761,1.1566,4.8549,4.8549,0,0,1,1.041,3.3541v30.65a18.47,18.47,0,0,0,1.8508,8.8481,18.0517,18.0517,0,0,0,6.3619,6.3035,30.2553,30.2553,0,0,1,3.9906-5.4361,50.4539,50.4539,0,0,1,5.61-5.5516,5.5072,5.5072,0,0,1-4.1642-1.5615,5.9874,5.9874,0,0,1-1.5037-4.3373ZM223.59,16.8388a8.6039,8.6039,0,0,0-1.1567-4.6264,23.93,23.93,0,0,0-3.3544-4.0481L217.459,6.4294A60.4383,60.4383,0,0,1,209.1307,13.6V3.8849a20.5773,20.5773,0,0,1-5.9571,3.9324,28.8411,28.8411,0,0,1-6.8824,2.0819,91.897,91.897,0,0,1,.6941,13.1853v9.6h-3.3545l-2.5448,3.47h5.8993V77.7918a5.6778,5.6778,0,0,1-.6941,3.1229,8.2726,8.2726,0,0,1-2.1977,2.0819,41.6069,41.6069,0,0,1,4.9738,4.8,30.0341,30.0341,0,0,1,4.5112,6.1878,21.6426,21.6426,0,0,1,5.4365-6.3035,28.5228,28.5228,0,0,1,7.8656-4.6842,11.3986,11.3986,0,0,1-4.8582-1.388,5.4971,5.4971,0,0,1-2.2555-3.3541,27.4066,27.4066,0,0,1-.6362-6.824V36.1541h7.1649l2.5448-3.47h-9.2471q7.3984-4.5107,10.7-8.27Q223.5895,20.6568,223.59,16.8388Zm-14.4588-.9253Q214.1,19.73,214.1045,23.2a6.138,6.138,0,0,1-1.1567,3.5277,18.62,18.62,0,0,1-3.8171,3.759ZM331.0455,30.14q-2.4293,3.7023-5.2052,3.7011a3.728,3.728,0,0,1-2.4292-1.1566,11.9476,11.9476,0,0,1-2.082-2.4289q-1.1554,2.082-3.2966,5.1469t-3.9907,5.3782a14.6019,14.6019,0,0,0-2.5447-5.8408,19.5471,19.5471,0,0,0-5.3209-4.6843,40.532,40.532,0,0,1-4.222,5.5517,55.5478,55.5478,0,0,1-5.3786,5.436,5.5075,5.5075,0,0,1,4.1641,1.5615,5.9971,5.9971,0,0,1,1.5037,4.3372v30.65a5.6779,5.6779,0,0,1-.694,3.1229,8.2348,8.2348,0,0,1-2.1978,2.0819,41.2465,41.2465,0,0,1,4.9738,4.8,29.8522,29.8522,0,0,1,4.5112,6.1878,21.6765,21.6765,0,0,1,5.4366-6.3035,28.5573,28.5573,0,0,1,7.8655-4.6842,11.4186,11.4186,0,0,1-4.8581-1.388,5.5155,5.5155,0,0,1-2.2555-3.3541,27.5172,27.5172,0,0,1-.6363-6.824V44.25a10.3091,10.3091,0,0,0,6.1306,2.1975,7.3382,7.3382,0,0,0,5.0894-2.3132,16.9021,16.9021,0,0,0,3.9329-6.0721A21.145,21.145,0,0,0,331.0455,30.14Zm100.1663,0q-2.4291,3.7023-5.2052,3.7011a3.7276,3.7276,0,0,1-2.4291-1.1566,11.9482,11.9482,0,0,1-2.0821-2.4289q-1.1555,2.082-3.2966,5.1469t-3.9906,5.3782a14.6034,14.6034,0,0,0-2.5448-5.8408,19.5441,19.5441,0,0,0-5.3209-4.6843,40.53,40.53,0,0,1-4.2219,5.5517,55.5479,55.5479,0,0,1-5.3787,5.436,5.5075,5.5075,0,0,1,4.1642,1.5615,5.9971,5.9971,0,0,1,1.5036,4.3372v30.65a5.6779,5.6779,0,0,1-.694,3.1229,8.2358,8.2358,0,0,1-2.1977,2.0819,41.2614,41.2614,0,0,1,4.9738,4.8,29.86,29.86,0,0,1,4.5112,6.1878,21.6745,21.6745,0,0,1,5.4365-6.3035,28.5592,28.5592,0,0,1,7.8656-4.6842,11.42,11.42,0,0,1-4.8582-1.388,5.5159,5.5159,0,0,1-2.2555-3.3541,27.5181,27.5181,0,0,1-.6362-6.824V44.25a10.3091,10.3091,0,0,0,6.1306,2.1975,7.3384,7.3384,0,0,0,5.0894-2.3132,16.9034,16.9034,0,0,0,3.9329-6.0721A21.1449,21.1449,0,0,0,431.2118,30.14ZM135.7954,46.4478a8.3534,8.3534,0,0,1,1.5037-5.2047,36.285,36.285,0,0,1-6.7089-5.2047,58.1247,58.1247,0,0,1-5.5523-5.783q-4.2786,3.8167-14.5744,7.865a13.61,13.61,0,0,0-6.42,4.5685q-2.1412,2.9495-2.14,8.27V79.9894a10.7348,10.7348,0,0,0,2.834,7.5758q2.835,3.0637,9.7742,6.4191a86.3575,86.3575,0,0,1,9.2536-12.3757,15.8214,15.8214,0,0,0,2.3134,6.9975,19.2186,19.2186,0,0,0,5.7836,5.3782,40.3963,40.3963,0,0,1,4.2219-5.5517,55.5591,55.5591,0,0,1,5.3787-5.436,5.5071,5.5071,0,0,1-4.1641-1.5615,5.9972,5.9972,0,0,1-1.5037-4.3373ZM118.56,81.03a3.9541,3.9541,0,0,1-3.2966-1.5614,6.7,6.7,0,0,1-1.2146-4.2216V49.6864a43.86,43.86,0,0,1,.4628-7.6336,7.3771,7.3771,0,0,1,1.6193-3.5855l4.28,3.7012a10.9983,10.9983,0,0,1,2.5448,2.9493,7.3522,7.3522,0,0,1,.6941,3.412V78.2545a11.3469,11.3469,0,0,1-2.4292,2.0819A5.0705,5.0705,0,0,1,118.56,81.03ZM288.5943,46.4478a5.6774,5.6774,0,0,1,.694-3.1227,8.2328,8.2328,0,0,1,2.1977-2.082,32.901,32.901,0,0,1-4.6846-4.6841,31.3082,31.3082,0,0,1-4.3377-6.3036,33.7018,33.7018,0,0,1-4.3376,6.3036,29.3131,29.3131,0,0,1-4.8,4.6841,6.0651,6.0651,0,0,1,2.3713,1.9084,5.8674,5.8674,0,0,1,.7519,3.2963V78.2545l-1.3881.9253a8.1765,8.1765,0,0,1-4.3954,1.3878,3.5543,3.5543,0,0,1-2.7761-1.1566,4.8542,4.8542,0,0,1-1.041-3.3541v-30.65a18.4969,18.4969,0,0,0-1.8508-8.8479,18.0324,18.0324,0,0,0-6.3619-6.3036,30.34,30.34,0,0,1-3.9907,5.4361,50.6513,50.6513,0,0,1-5.61,5.5516,5.5077,5.5077,0,0,1,4.1642,1.5615,5.9971,5.9971,0,0,1,1.5037,4.3372V76.7509a15.8233,15.8233,0,0,1-.347,3.7011,7.6314,7.6314,0,0,1-1.1567,2.5446,46.2564,46.2564,0,0,1,5.3786,4.742q3.5292,3.47,5.8414,6.2457l12.1455-12.6069a15.0143,15.0143,0,0,0,2.2555,7.1708,19.6225,19.6225,0,0,0,5.8414,5.4361,40.4145,40.4145,0,0,1,4.222-5.5517,55.548,55.548,0,0,1,5.3788-5.436,5.5075,5.5075,0,0,1-4.1643-1.5615,5.9972,5.9972,0,0,1-1.5036-4.3373ZM359.5,36.15l2.5449-3.47h-11.22V10.8245q-4.05,3.2373-12.8394,6.0143a115.4916,115.4916,0,0,1,.694,13.1853v2.6565H335.33l-2.5448,3.47H338.68V77.7918a5.6779,5.6779,0,0,1-.694,3.1229,8.2348,8.2348,0,0,1-2.1978,2.0819,41.4178,41.4178,0,0,1,4.9739,4.8,30.0341,30.0341,0,0,1,4.5112,6.1878,21.676,21.676,0,0,1,5.4365-6.3035,28.5214,28.5214,0,0,1,7.8656-4.6842,11.3972,11.3972,0,0,1-4.8581-1.388,5.5156,5.5156,0,0,1-2.2556-3.3541,27.4009,27.4009,0,0,1-.6363-6.824V36.15Zm22.2065,45.4584a5.925,5.925,0,0,1-5.2052-2.4866,12.1109,12.1109,0,0,1-1.735-6.9975V64.1439l5.3209-2.66q7.2873-3.7023,10.526-7.1131a10.7672,10.7672,0,0,0,3.2388-7.5757,12.25,12.25,0,0,0-1.2145-5.5518,43.3777,43.3777,0,0,0-3.6437-5.783,26.0853,26.0853,0,0,1-3.2388-5.2047q-3.9351,3.7023-13.6491,7.5179-5.3232,2.1965-7.4029,5.0313-2.082,2.8347-2.0822,8.0384V74.7847q0,7.748,3.7594,12.26t12.0875,5.8986A68.704,68.704,0,0,1,392.6956,80.105l-.6939-1.5035A19.6365,19.6365,0,0,1,381.7069,81.6086Zm-4.8117-42.93a33.1284,33.1284,0,0,1,4.4069,7.3645,16.9262,16.9262,0,0,1,1.4459,6.3035,7.1255,7.1255,0,0,1-1.0988,3.99,12.7114,12.7114,0,0,1-4.3377,3.5276l-2.5448,1.5036V46.2166q0-5.12,1.6722-7.3873c.087-.1178.2864-.3534.2942-.362C376.7331,38.4673,376.849,38.6181,376.8952,38.6786Zm246.5592,42.93a5.925,5.925,0,0,1-5.2052-2.4866,12.1109,12.1109,0,0,1-1.735-6.9975V64.1439l5.3209-2.66q7.2873-3.7023,10.526-7.1131A10.7672,10.7672,0,0,0,635.6,46.7949a12.25,12.25,0,0,0-1.2145-5.5518,43.3777,43.3777,0,0,0-3.6437-5.783,26.0853,26.0853,0,0,1-3.2388-5.2047q-3.9351,3.7023-13.6491,7.5179-5.3232,2.1965-7.4029,5.0313-2.082,2.8347-2.0822,8.0384V74.7847q0,7.748,3.7594,12.26t12.0875,5.8986A68.7066,68.7066,0,0,1,634.4431,80.105l-.6939-1.5035A19.6365,19.6365,0,0,1,623.4544,81.6086Zm-4.8117-42.93a33.1284,33.1284,0,0,1,4.4069,7.3645,16.9262,16.9262,0,0,1,1.4459,6.3035,7.1255,7.1255,0,0,1-1.0988,3.99,12.7114,12.7114,0,0,1-4.3377,3.5276l-2.5448,1.5036V46.2166q0-5.12,1.6722-7.3873c.087-.1178.2865-.3534.2942-.362C618.4806,38.4673,618.5965,38.6181,618.6427,38.6786Zm110.299,42.93a5.9249,5.9249,0,0,1-5.2052-2.4866,12.1109,12.1109,0,0,1-1.7351-6.9975V64.1439l5.321-2.66q7.2872-3.7023,10.5259-7.1131a10.7668,10.7668,0,0,0,3.2388-7.5757,12.249,12.249,0,0,0-1.2145-5.5518,43.3756,43.3756,0,0,0-3.6436-5.783,26.0867,26.0867,0,0,1-3.2389-5.2047q-3.9349,3.7023-13.649,7.5179-5.3232,2.1965-7.403,5.0313-2.082,2.8347-2.0821,8.0384V74.7847q0,7.748,3.7593,12.26t12.0876,5.8986A68.7015,68.7015,0,0,1,739.93,80.105l-.6939-1.5035A19.6365,19.6365,0,0,1,728.9417,81.6086Zm-4.8118-42.93a33.1246,33.1246,0,0,1,4.4069,7.3645,16.9243,16.9243,0,0,1,1.4459,6.3035,7.1255,7.1255,0,0,1-1.0988,3.99,12.7118,12.7118,0,0,1-4.3376,3.5276l-2.5449,1.5036V46.2166q0-5.12,1.6723-7.3873c.0869-.1178.2864-.3534.2941-.362C723.9678,38.4673,724.0837,38.6181,724.13,38.6786ZM526.8716,3.8849q-4.05,3.2373-12.8395,6.0143a115.4687,115.4687,0,0,1,.694,13.1853V77.7918a5.677,5.677,0,0,1-.694,3.1229,8.2348,8.2348,0,0,1-2.1978,2.0819,32.8866,32.8866,0,0,1,4.6847,4.6842,31.2519,31.2519,0,0,1,4.3377,6.3035,33.6988,33.6988,0,0,1,4.3377-6.3035,29.3144,29.3144,0,0,1,4.8-4.6842,6.0666,6.0666,0,0,1-2.3711-1.9084,5.8663,5.8663,0,0,1-.7519-3.2964Zm24.5223,0q-4.05,3.2373-12.8394,6.0143a115.4928,115.4928,0,0,1,.6939,13.1853V77.7918a5.678,5.678,0,0,1-.6939,3.1229,8.2369,8.2369,0,0,1-2.1979,2.0819,32.8866,32.8866,0,0,1,4.6847,4.6842,31.2519,31.2519,0,0,1,4.3377,6.3035,33.6988,33.6988,0,0,1,4.3377-6.3035,29.3184,29.3184,0,0,1,4.8-4.6842,6.0666,6.0666,0,0,1-2.3711-1.9084,5.8663,5.8663,0,0,1-.7519-3.2964Zm43.7212,42.5629a8.3528,8.3528,0,0,1,1.5037-5.2047,36.285,36.285,0,0,1-6.7089-5.2047,58.1247,58.1247,0,0,1-5.5523-5.783q-4.2785,3.8167-14.5744,7.865a13.6084,13.6084,0,0,0-6.42,4.5685q-2.1413,2.9495-2.14,8.27V79.9894A10.0507,10.0507,0,0,0,564,87.3338q2.776,2.8348,9.8321,6.3035a87.0047,87.0047,0,0,1,9.138-11.913V84.5a13.7807,13.7807,0,0,0,.81,4.6843,46.56,46.56,0,0,0,2.1978,5.0312q1.2735,2.6578,1.9664,4.5686a11.246,11.246,0,0,1,.6939,3.8746,8.588,8.588,0,0,1-3.0651,6.8818,11.6414,11.6414,0,0,1-7.8078,2.6024q-6.0138,0-8.2127-3.0072a3.617,3.617,0,0,0,1.0411.1157,6.4405,6.4405,0,0,0,4.569-1.5615,5.4932,5.4932,0,0,0,1.6772-4.2215,5.658,5.658,0,0,0-1.7929-4.3373,6.2625,6.2625,0,0,0-4.4533-1.6771A5.6433,5.6433,0,0,0,566.14,99.536a7.3623,7.3623,0,0,0-1.7929,4.9734,9.1447,9.1447,0,0,0,3.5858,7.3444q3.5847,2.9494,9.8321,2.9494a21.6282,21.6282,0,0,0,10.7574-2.66,20.2839,20.2839,0,0,0,7.2872-6.5927,14.0827,14.0827,0,0,0,2.5448-7.6336,16.1229,16.1229,0,0,0-.347-3.5854,22.7311,22.7311,0,0,0-1.1567-3.47,36.7236,36.7236,0,0,1-1.33-4.3372,21.2517,21.2517,0,0,1-.4048-4.5685ZM577.88,81.03a3.9538,3.9538,0,0,1-3.2965-1.5614,6.6993,6.6993,0,0,1-1.2147-4.2216V49.6864a43.87,43.87,0,0,1,.4628-7.6336,7.3763,7.3763,0,0,1,1.6194-3.5855l5.3208,4.7421a6.7081,6.7081,0,0,1,1.6773,2.1975,7.7316,7.7316,0,0,1,.52,3.1229V78.2545a11.3445,11.3445,0,0,1-2.4292,2.0819A5.07,5.07,0,0,1,577.88,81.03ZM760.9825,46.4478a5.6783,5.6783,0,0,1,.6939-3.1227,8.2,8.2,0,0,1,2.1978-2.082A32.6619,32.6619,0,0,1,759.19,36.559a31.1145,31.1145,0,0,1-4.3376-6.3036,33.9333,33.9333,0,0,1-4.3377,6.3036,29.4085,29.4085,0,0,1-4.8,4.6841,6.1013,6.1013,0,0,1,2.3713,1.9084,5.8866,5.8866,0,0,1,.7519,3.2963v31.344a5.6778,5.6778,0,0,1-.6941,3.1229,8.27,8.27,0,0,1-2.1977,2.0819,33.15,33.15,0,0,1,4.6847,4.6842,31.4457,31.4457,0,0,1,4.3376,6.3035,33.476,33.476,0,0,1,4.3377-6.3035,29.2235,29.2235,0,0,1,4.8-4.6842,6.033,6.033,0,0,1-2.3713-1.9084,5.8481,5.8481,0,0,1-.7518-3.2964Zm77.2658,35.1608a5.9249,5.9249,0,0,1-5.2052-2.4866,12.1109,12.1109,0,0,1-1.7351-6.9975V64.1439l5.321-2.66q7.2871-3.7023,10.5259-7.1131a10.7668,10.7668,0,0,0,3.2388-7.5757,12.249,12.249,0,0,0-1.2145-5.5518,43.3756,43.3756,0,0,0-3.6436-5.783,26.0867,26.0867,0,0,1-3.2389-5.2047q-3.9349,3.7023-13.649,7.5179-5.3232,2.1965-7.403,5.0313-2.082,2.8347-2.0821,8.0384V74.7847q0,7.748,3.7593,12.26T835.01,92.9433A68.7015,68.7015,0,0,1,849.237,80.105l-.6939-1.5035A19.6367,19.6367,0,0,1,838.2483,81.6086Zm-4.8118-42.93a33.1246,33.1246,0,0,1,4.4069,7.3645,16.9243,16.9243,0,0,1,1.4459,6.3035,7.1255,7.1255,0,0,1-1.0988,3.99,12.7118,12.7118,0,0,1-4.3376,3.5276l-2.5449,1.5036V46.2166q0-5.12,1.6723-7.3873c.0869-.1178.2864-.3534.2941-.362C833.2744,38.4673,833.39,38.6181,833.4365,38.6786ZM64.5117,10.0625A29.7807,29.7807,0,0,1,56.2455,8.848Q52.0211,7.6336,45.32,5.2047,38.0366,2.5434,33.3542,1.2723A35.7623,35.7623,0,0,0,23.9318,0,26.1976,26.1976,0,0,0,10.8677,3.065,20.4149,20.4149,0,0,0,2.717,11.1034,21.4212,21.4212,0,0,0,0,21.5129Q0,28.22,3.7575,32.3271a12.1067,12.1067,0,0,0,9.3067,4.1059,12.994,12.994,0,0,0,10.0583-4.1637l-.4624-.81a15.96,15.96,0,0,1-8.2085,2.3132A10.6235,10.6235,0,0,1,6.59,30.7656a10.478,10.478,0,0,1-3.0059-7.7492q0-4.9722,3.1793-7.5757,3.177-2.6023,8.7287-2.6024a28.9045,28.9045,0,0,1,8.4975,1.33q4.3354,1.3288,10.6941,3.8747a119.383,119.383,0,0,0,11.3879,4.1637,32.6071,32.6071,0,0,0,9.3068,1.3879A20.1632,20.1632,0,0,0,66.13,20.761a20.4723,20.4723,0,0,0,7.2258-7.4022A25.3476,25.3476,0,0,0,76.5354,3.47,14.1126,14.1126,0,0,1,71.68,8.5589,14.5877,14.5877,0,0,1,64.5117,10.0625ZM56.7658,35.137a9.3267,9.3267,0,0,0-5.7229,1.85,12.1508,12.1508,0,0,0-3.8152,4.6843,13.1059,13.1059,0,0,0-1.3295,5.61,54.2079,54.2079,0,0,1-6.6477-7.0553,10.4637,10.4637,0,0,1-2.1388-6.5382,10.8231,10.8231,0,0,1,1.33-4.9156,22.3414,22.3414,0,0,1,3.295-4.8,24.6068,24.6068,0,0,0-6.8212,3.6432A24.0932,24.0932,0,0,0,28.73,34.3239a16.4561,16.4561,0,0,0-2.6013,9.1406,15.0288,15.0288,0,0,0,2.4855,8.79,50.8763,50.8763,0,0,0,7.226,7.9806,49.4292,49.4292,0,0,1,6.4742,6.94,11.56,11.56,0,0,1,2.081,6.94,13.8163,13.8163,0,0,1-1.7342,6.5926C37.7267,73.9988,31.6362,70.39,24.3943,70.39a18.8268,18.8268,0,0,0-10.2317,2.9494,20.57,20.57,0,0,0-7.3992,8.27A26.05,26.05,0,0,0,4.0465,93.6373a21.0733,21.0733,0,0,0,2.8326,10.93,20.1621,20.1621,0,0,0,7.746,7.518,22.6885,22.6885,0,0,0,11.1565,2.718,25.06,25.06,0,0,0,11.041-2.429,25.3762,25.3762,0,0,0,8.3819-6.3612,24.2421,24.2421,0,0,0,4.74-8.2119l-1.1561-.5783a30.5635,30.5635,0,0,1-9.249,10.5829,21.933,21.933,0,0,1-12.9486,3.99,21.0757,21.0757,0,0,1-9.6536-2.0818,15.2859,15.2859,0,0,1-6.3009-5.6673A14.7667,14.7667,0,0,1,8.44,96.1818a11.9435,11.9435,0,0,1,3.5262-8.96A12.1938,12.1938,0,0,1,20.81,84.0375a12.9607,12.9607,0,0,1,8.0352,2.3745,22.8852,22.8852,0,0,1,6.1852,7.5735,16.715,16.715,0,0,1,3.3528-5.9883,31.5736,31.5736,0,0,1,6.7054-5.6708,36.9951,36.9951,0,0,0,8.382-7.7493,15.0989,15.0989,0,0,0,2.8326-9.2528,16.8156,16.8156,0,0,0-2.1389-8.5588A34.7009,34.7009,0,0,0,48.21,49.3632a9.3921,9.3921,0,0,1-.1156-1.3879,10.5491,10.5491,0,0,1,1.214-4.9734,7.3542,7.3542,0,0,1,3.41-3.3542,5.5878,5.5878,0,0,0-1.1561,3.7012A5.5314,5.5314,0,0,0,53.24,47.5127a5.8193,5.8193,0,0,0,4.22,1.6192,6.1309,6.1309,0,0,0,4.5089-2.0241,6.8005,6.8005,0,0,0,1.9654-4.9156,6.6677,6.6677,0,0,0-7.1679-7.0552Zm697.97-14.1344a6.7619,6.7619,0,0,0,4.9161-2.14,6.7158,6.7158,0,0,0,0-9.8312,6.7175,6.7175,0,0,0-9.8321,0,6.716,6.716,0,0,0,0,9.8312,6.7544,6.7544,0,0,0,4.916,2.14Zm-265.8046-.1837q-2.4291-10.2949-7.6344-15.5563A17.4839,17.4839,0,0,0,468.3422,0a16.8207,16.8207,0,0,0-7.9235,1.9084,15.38,15.38,0,0,0-5.8415,5.2626,13.0463,13.0463,0,0,0-2.1977,7.2865,10.6158,10.6158,0,0,0,2.6605,7.5758,9.0817,9.0817,0,0,0,6.94,2.8337,9.5607,9.5607,0,0,0,4.2219-.9831,7.0523,7.0523,0,0,0,3.0652-2.7181l-.5783-.6939a9.04,9.04,0,0,1-5.8992,2.0819,7.0117,7.0117,0,0,1-5.3208-2.1976,7.6006,7.6006,0,0,1-2.0822-5.436,7.8494,7.8494,0,0,1,2.14-5.8987A8.3525,8.3525,0,0,1,463.6,6.94a8.6124,8.6124,0,0,1,7.2295,3.8747q2.835,3.8757,4.9159,11.8551L457.8161,73.628a16.747,16.747,0,0,0-9.6007,3.1807,21.0669,21.0669,0,0,0-6.709,8.0385,23.9211,23.9211,0,0,0-2.429,10.6407q0,8.7855,5.8992,14.0527,5.8992,5.26,15.2686,5.2626a21.9056,21.9056,0,0,0,10.2368-2.429,25.1386,25.1386,0,0,0,7.9235-6.3612,23.4942,23.4942,0,0,0,4.5112-8.2119l-1.1568-.5783a31.314,31.314,0,0,1-8.7331,10.5829,19.3,19.3,0,0,1-11.972,3.99q-8.2137,0-12.8972-3.8746a12.158,12.158,0,0,1-4.6847-9.7733,11.4211,11.4211,0,0,1,2.8339-8.0349,9.2241,9.2241,0,0,1,7.1138-2.8371,13.2626,13.2626,0,0,1,6.8824,1.6226,18.5179,18.5179,0,0,1,5.8414,5.0869c.694-2.5445,2.1214-4.6091,4.28-7.3457a33.4806,33.4806,0,0,1,6.8247-6.65l-1.0411-1.3879-2.8917,1.6192a13.43,13.43,0,0,0-4.9738-4.0481,23.0239,23.0239,0,0,0-7.1717-2.3132l5.2052-15.2672h17.929l4.9738,21.2815q1.6206,6.8251,3.7594,9.889a11.05,11.05,0,0,0,6.5354,4.2216,36.9567,36.9567,0,0,1,8.56-10.9877A3.75,3.75,0,0,1,504.2,81.4351a18.7464,18.7464,0,0,1-2.1978-6.0722Zm-11.9141,7.2866,6.4775,27.0169H467.5324Zm222.546,48.9923V47.4888a15.8281,15.8281,0,0,1,.347-3.7011,7.5843,7.5843,0,0,1,1.1568-2.5446,45.8552,45.8552,0,0,1-5.3787-4.742q-3.529-3.47-5.8413-6.2457l-12.03,12.3757a12.97,12.97,0,0,0-2.7761-6.8818,25.9,25.9,0,0,0-6.7089-5.4939l-12.1455,12.607a15.014,15.014,0,0,0-2.2556-7.1709,19.5915,19.5915,0,0,0-5.8413-5.4361,40.7275,40.7275,0,0,1-4.2219,5.5517,55.5591,55.5591,0,0,1-5.3787,5.436,5.514,5.514,0,0,1,4.164,1.5615,5.9968,5.9968,0,0,1,1.5039,4.3372v30.65a5.6787,5.6787,0,0,1-.6941,3.1229,8.2358,8.2358,0,0,1-2.1977,2.0819,32.9075,32.9075,0,0,1,4.6847,4.6842,31.4457,31.4457,0,0,1,4.3376,6.3035,33.476,33.476,0,0,1,4.3377-6.3035,29.3144,29.3144,0,0,1,4.8-4.6842,6.05,6.05,0,0,1-2.3713-1.9084,5.8664,5.8664,0,0,1-.7518-3.2964V45.87l1.388-.8095a8.1551,8.1551,0,0,1,4.4176-1.388,3.5409,3.5409,0,0,1,2.7523,1.1566,4.8631,4.8631,0,0,1,1.0428,3.3541V77.7918a5.6769,5.6769,0,0,1-.6942,3.1229,8.2342,8.2342,0,0,1-2.1977,2.0819,32.9019,32.9019,0,0,1,4.6848,4.6842,31.4457,31.4457,0,0,1,4.3376,6.3035,31.7119,31.7119,0,0,1,4.7425-6.3035,30.9279,30.9279,0,0,1,5.3208-4.6842,7.879,7.879,0,0,1-3.0652-1.9084,4.8056,4.8056,0,0,1-.9832-3.2964V45.7539l1.1567-.6939a8.1835,8.1835,0,0,1,4.3411-1.388,3.6516,3.6516,0,0,1,2.8458,1.1566,5.055,5.055,0,0,1,1.0257,3.3541v30.65a18.47,18.47,0,0,0,1.8508,8.8481,18.0514,18.0514,0,0,0,6.3618,6.3035,30.2666,30.2666,0,0,1,3.9907-5.4361,50.4621,50.4621,0,0,1,5.61-5.5516,5.5069,5.5069,0,0,1-4.1641-1.5615,5.987,5.987,0,0,1-1.5038-4.3373Z"/></svg>